<svg xmlns="http://www.w3.org/2000/svg" viewBox="0 0 64 64">
  <defs>
    <linearGradient id="learnebHexGradient" x1="0%" y1="0%" x2="100%" y2="100%">
      <stop offset="0%" stop-color="#00E5C9" />
      <stop offset="50%" stop-color="#8B7FFF" />
      <stop offset="100%" stop-color="#FFB454" />
    </linearGradient>
  </defs>

  <!-- Hexagon badge, matches the header's hex-clip mark -->
  <polygon
    points="16,3.84 48,3.84 64,32 48,60.16 16,60.16 0,32"
    fill="url(#learnebHexGradient)"
  />

  <!-- Lucide "Brain" icon, scaled from its native 24x24 viewBox and centered -->
  <g transform="translate(16,16) scale(1.3333)" fill="none" stroke="#0B0E14" stroke-width="2" stroke-linecap="round" stroke-linejoin="round">
    <path d="M12 5a3 3 0 1 0-5.997.125 4 4 0 0 0-2.526 5.77 4 4 0 0 0 .556 6.588A4 4 0 1 0 12 18Z" />
    <path d="M12 5a3 3 0 1 1 5.997.125 4 4 0 0 1 2.526 5.77 4 4 0 0 1-.556 6.588A4 4 0 1 1 12 18Z" />
    <path d="M15 13a4.5 4.5 0 0 1-3-4 4.5 4.5 0 0 1-3 4" />
    <path d="M17.599 6.5a3 3 0 0 0 .399-1.375" />
    <path d="M6.003 5.125A3 3 0 0 0 6.401 6.5" />
    <path d="M3.477 10.896a4 4 0 0 1 .585-.396" />
    <path d="M19.938 10.5a4 4 0 0 1 .585.396" />
    <path d="M6 18a4 4 0 0 1-1.967-.516" />
    <path d="M19.967 17.484A4 4 0 0 1 18 18" />
  </g>
</svg>
